<svg xmlns="http://www.w3.org/2000/svg" width="133.4" height="28.9" overflow="visible"><style>.st2{fill:#eb2126}</style><path fill="#fff" d="M0 0h133.4v28.9H0z"/><path d="M132.3 1.2v26.6H1.2V1.2h131.1m1.1-1.2H0v28.9h133.4V0z" fill="#ea1c24"/><g><path class="st2" d="M18.8 16.3c0 1.4-.9 2.1-2.5 2.1h-3.1v-7.5H16c1.6 0 2.5.7 2.5 2 0 .8-.4 1.4-1 1.6.7.3 1.3 1 1.3 1.8zM15.9 14c.7 0 1.1-.3 1.1-.9s-.4-.9-1.1-.9h-1.3V14h1.3zm-1.3 3.1h1.5c.7 0 1.1-.4 1.1-.9 0-.6-.4-.9-1.1-.9h-1.5v1.8zM19.8 15.4v-4.5h1.6v4.3c0 1.3.6 1.9 1.5 1.9 1 0 1.5-.6 1.5-1.9v-4.3H26v4.5c0 2.1-1.2 3.1-3.1 3.1-1.8 0-3.1-1.1-3.1-3.1zM32.1 10.9h1.6L31 15.6v2.8h-1.5v-2.8L26.8 11h1.7l1.8 3.2 1.8-3.3zM43.4 18.4h-1.2l-3.5-5v5h-1.5v-7.5h1.5l3.3 4.7v-4.7h1.5v7.5zM48.1 18.5c-2.1 0-3.5-1.6-3.5-3.9 0-2.2 1.4-3.9 3.5-3.9s3.5 1.6 3.5 3.9-1.4 3.9-3.5 3.9zm0-6.3c-1.2 0-1.9 1-1.9 2.5s.8 2.5 1.9 2.5c1.2 0 2-1 2-2.5s-.8-2.5-2-2.5zM57.4 10.9l1.3 5 1.2-5h1.5l-1.9 7.5H58l-1.3-4.9-1.3 4.9H54l-2-7.5h1.6l1.2 5 1.3-5h1.3zM64.8 18.4v-7.5h5v1.4h-3.4v1.9h3.2v1.3h-3.2v2.9h-1.6zM74 18.5c-2.1 0-3.5-1.6-3.5-3.9 0-2.2 1.4-3.9 3.5-3.9s3.5 1.6 3.5 3.9-1.4 3.9-3.5 3.9zm0-6.3c-1.2 0-1.9 1-1.9 2.5s.8 2.5 1.9 2.5c1.2 0 2-1 2-2.5s-.8-2.5-2-2.5zM80.3 15.6v2.8h-1.5v-7.5h3.1c1.6 0 2.6.8 2.6 2.4 0 1.2-.7 1.9-1.7 2.2l2 2.9h-1.7l-1.8-2.8h-1zm0-1.3h1.4c.8 0 1.2-.4 1.2-1s-.4-1-1.2-1h-1.4v2zM89.9 18.3c-1.2-.2-2-.9-2.2-2.1h1.5c.2.6.7.9 1.4.9s1.1-.3 1.1-.9c0-.4-.3-.7-.9-.8l-1.2-.3c-1-.2-1.8-.8-1.8-2 0-1.1.8-2 2-2.1V9.9h1.3v1.2c1.1.2 1.7 1 1.9 2h-1.4c-.2-.5-.6-.8-1.3-.8-.6 0-1.1.3-1.1.8 0 .4.3.6.8.8l1.3.3c1.1.3 1.8.9 1.8 2 0 1.2-.8 1.9-2 2.1v1.2h-1.3v-1.2zM96.5 18.4h-1.6l2.4-6.1h-3.4v-1.4h5V12l-2.4 6.4zM101.3 15.6h1.7v-1.5h1.4v1.5h1.1v1.3h-1.1v1.5H103v-1.5h-3.3v-1.1l2.6-4.9h1.5l-2.5 4.7zM107.1 16.6c.5 0 .9.4.9 1 0 .5-.4 1-.9 1s-.9-.4-.9-1 .4-1 .9-1zM110.5 16.5c.1.4.5.7 1 .7.9 0 1.4-1 1.4-2.1V15c-.2.5-.8.8-1.6.8-1.5 0-2.4-1.1-2.4-2.5s1-2.6 2.6-2.6c.9 0 1.8.4 2.3 1.3.4.7.5 1.4.5 2.3 0 2.3-1.1 4-2.9 4-1.4 0-2.2-.8-2.5-2h1.6zm1.1-4.4c-.7 0-1.2.5-1.2 1.3s.5 1.3 1.2 1.3 1.2-.5 1.2-1.3-.5-1.3-1.2-1.3zM116.8 16.5c.1.4.5.7 1 .7.9 0 1.4-1 1.4-2.1V15c-.2.5-.8.8-1.6.8-1.5 0-2.4-1.1-2.4-2.5s1-2.6 2.6-2.6c.9 0 1.8.4 2.3 1.3.4.7.5 1.4.5 2.3 0 2.3-1.1 4-2.9 4-1.4 0-2.2-.8-2.5-2h1.6zm1-4.4c-.7 0-1.2.5-1.2 1.3s.5 1.3 1.2 1.3 1.2-.5 1.2-1.3c.1-.8-.4-1.3-1.2-1.3z"/></g></svg>