<svg xmlns="http://www.w3.org/2000/svg" viewBox="0 0 300 250"><path d="M118.7958,22.3049c0,2.803-.006,8.798.015,12.148-.021,3.413,2.704,4.971,6.415,4.971a6.1282,6.1282,0,0,0,2.053-.373c-.006-.001-.006-2.687,0-2.686a8.47888,8.47888,0,0,1-2.804.242,2.815,2.815,0,0,1-2.428-1.968c-.344-1.177-.251-9.501-.251-12.34-.006-.006-3,.006-3,.006" fill="#fff"/><path d="M128.0235,22.2952c0,.007-.008,12.34-.008,16.317a3.919,3.919,0,0,0,2.977-3.748c-.004.003-.011-12.058-.012-12.562,0,0-2.95,0-2.957-.007" fill="#fff"/><path d="M204.5659,22.3139c0,2.284-.001,7.651-.001,7.683h2.893c.01-2.031-.006-5.804.005-7.683-1.544-.002-2.86,0-2.897,0" fill="#fff"/><path d="M204.5659,31.0341c0,2.497-.001,8.365-.001,8.401h2.893c.01-2.221-.006-6.347.005-8.401-1.544-.002-2.86,0-2.897,0" fill="#fff"/><path d="M98.0918,22.7085c-.022,1.544-.022,4.893,0,6.393,1.566,4.284,3.784,10.33,3.784,10.33.413.065,3.892,0,3.066,0-.022,0,.022.022,4.045-10.373.017-.654-.01-6.35-.044-6.35-5.501,12.221-5.476,12.251-5.545,12.251,0,.021-5.306-12.273-5.306-12.251" fill="#fff"/><path d="M157.0804,22.3026s2.476-.008,2.479-.014l7.191,17.164c.014,0-2.755-.014-2.741-.014-.028,0-6.929-17.136-6.929-17.136" fill="#fff"/><path d="M156.34979,24.11659s1.283,3.072,1.278,3.066c0-.005-1.555,3.838-1.555,3.838.659,0,3.164.006,3.164.006,0,.005,1.158,2.751,1.158,2.751,0,.005-5.415.005-5.415,0l-2.305,5.648s-2.021.011-2.767.011c0,.006,4.885-11.859,6.442-15.32" fill="#fff"/><path d="M195.2825,22.2773c0,5.089-.001,17.049-.001,17.121h3.066c.012-4.527-.006-12.934.006-17.121-1.637-.005-3.032,0-3.071,0" fill="#fff"/><path d="M194.4505,29.0659c-1.555-.008-4.127-.001-6.092-.001-.001-2.589-.001-5.028.004-6.751-1.637-.005-3.032,0-3.071,0,0,5.089-.001,17.049-.001,17.121h3.066c.005-1.977.005-4.695.004-7.477h6.09Z" fill="#fff"/><path d="M94.3068,22.3127c0,5.089-.001,17.049-.001,17.121h3.066c.012-4.527-.006-12.934.006-17.121-1.637-.005-3.032,0-3.071,0" fill="#fff"/><path d="M109.587,22.3127c0,5.089-.001,17.049-.001,17.121h3.066c.012-4.527-.006-12.934.006-17.121-1.637-.005-3.032,0-3.071,0" fill="#fff"/><path d="M176.8727,21.56821a8.55953,8.55953,0,0,0-3.046.364v2.74a10.55532,10.55532,0,0,1,3.13-.192,6.69652,6.69652,0,0,1,2.719.7c0-.034.021-2.756.024-2.751a4.70791,4.70791,0,0,0-2.827-.861" fill="#fff"/><path d="M172.99921,26.14439c.048-.897.011-3.936.011-3.936a4.53793,4.53793,0,0,0-3.074,4.153c-.076,4.796,5.21,4.602,7.179,7.77a2.76791,2.76791,0,0,1,.277,1.074c-.011,0,.018,3.987.009,3.992,1.821-.701,2.4-1.36,2.802-2.56a6.02245,6.02245,0,0,0,.092-3.112c-.616-2.676-3.161-3.64-5.197-4.961a5.79817,5.79817,0,0,1-1.779-1.523,2.63658,2.63658,0,0,1-.32-.897" fill="#fff"/><path d="M173.3709,39.62711a10.605,10.605,0,0,0,3.076-.208v-2.74a11.05308,11.05308,0,0,1-3.13.227,13.18634,13.18634,0,0,1-3.458-.735c0,.035-.022,2.757-.024,2.751a8.77372,8.77372,0,0,0,3.536.705" fill="#fff"/><path d="M139.3372,26.17329c.048-.897.011-3.936.011-3.936a4.53793,4.53793,0,0,0-3.074,4.153c-.076,4.796,5.21,4.602,7.18,7.77a2.78758,2.78758,0,0,1,.276,1.074c-.011,0,.018,3.987.009,3.992,1.821-.701,2.4-1.36,2.802-2.56a6.02234,6.02234,0,0,0,.092-3.112c-.616-2.676-3.161-3.64-5.197-4.961a5.79813,5.79813,0,0,1-1.779-1.523,2.63658,2.63658,0,0,1-.32-.897" fill="#fff"/><path d="M139.70889,39.656a10.60509,10.60509,0,0,0,3.076-.208v-2.74a11.51331,11.51331,0,0,1-3.13.159,11.86021,11.86021,0,0,1-3.458-.667c0,.035-.022,2.757-.025,2.751a8.78333,8.78333,0,0,0,3.537.705" fill="#fff"/><path d="M143.23531,21.56641a8.55953,8.55953,0,0,0-3.046.364v2.74a10.55532,10.55532,0,0,1,3.13-.192,6.69652,6.69652,0,0,1,2.719.7c0-.035.021-2.756.024-2.751a4.70791,4.70791,0,0,0-2.827-.861" fill="#fff"/><polygon points="105.349 48.625 109.652 48.625 109.652 49.545 108.026 49.545 108.026 53.667 106.967 53.667 106.967 49.545 105.349 49.545 105.349 48.625" fill="#fff"/><polygon points="124.715 48.625 124.715 53.667 123.664 53.667 123.664 51.548 121.381 51.548 121.381 53.667 120.33 53.667 120.33 48.625 121.381 48.625 121.381 50.629 123.664 50.629 123.664 48.625 124.715 48.625" fill="#fff"/><polygon points="138.718 48.625 138.718 49.545 136.328 49.545 136.328 50.645 138.496 50.645 138.496 51.54 136.328 51.54 136.328 52.739 138.718 52.739 138.718 53.667 135.294 53.667 135.294 48.625 138.718 48.625" fill="#fff"/><path d="M96.5903,51.26511a1.113,1.113,0,1,1-1.113-1.113,1.11261,1.11261,0,0,1,1.113,1.113" fill="#fff"/><path d="M152.2224,51.26511a1.11351,1.11351,0,1,1-1.113-1.113,1.11261,1.11261,0,0,1,1.113,1.113" fill="#fff"/><path d="M207.40511,51.26511a1.11351,1.11351,0,1,1-1.113-1.113,1.11262,1.11262,0,0,1,1.113,1.113" fill="#fff"/><polygon points="165.533 48.625 166.404 52.017 167.233 48.625 168.268 48.625 166.954 53.667 165.993 53.667 165.106 50.341 164.219 53.667 163.258 53.667 161.944 48.625 163.004 48.625 163.825 52.017 164.712 48.625 165.533 48.625" fill="#fff"/><path d="M180.54469,48.62462l1.93,5.042h-1.068l-.452-1.215h-1.888l-.444,1.215h-1.051l1.93-5.042Zm-1.15,2.94h1.232l-.616-1.675Z" fill="#fff"/><polygon points="195.604 48.625 196.712 48.625 194.88 51.754 194.88 53.667 193.837 53.667 193.837 51.754 192.023 48.625 193.164 48.625 194.388 50.76 195.604 48.625" fill="#fff"/></svg>