<svg xmlns="http://www.w3.org/2000/svg" viewBox="0 0 300 250"><path d="M33.56348,87.75977c0,2.17138-1.48731,3.36474-3.99121,3.36474H24.05566V79.11377h5.14551c2.50391,0,4.00977,1.11475,4.00977,3.2666a2.601,2.601,0,0,1-1.60449,2.543A2.9343,2.9343,0,0,1,33.56348,87.75977Zm-4.71485-3.89258c.91992,0,1.40821-.352,1.40821-1.09571,0-.74316-.48829-1.07568-1.40821-1.07568h-1.7998v2.17139Zm-1.7998,4.67529h2.11328c.87988,0,1.36914-.46973,1.36914-1.1543,0-.72363-.48926-1.17382-1.36914-1.17382H27.04883Z"/><path d="M34.85645,86.21436V79.11377h3.12988v6.82666c0,1.70215.80176,2.58252,2.11328,2.58252,1.291,0,2.09277-.88037,2.09277-2.58252V79.11377h3.12989v7.12012c0,3.28662-2.05372,5.08642-5.22266,5.08642S34.85645,89.52051,34.85645,86.21436Z"/><path d="M47.16211,79.11377h3.14941v9.2915h5.37989v2.71924h-8.5293Z"/><path d="M59.958,84.043l3.874-4.9292h3.67774L63.30371,84.395l4.38184,6.72949H63.98828l-3.03223-4.6167-.998,1.27149v3.34521H56.80859V79.11377H59.958Z"/><path d="M81.20508,79.11377V81.813H75.708v1.87793h5.02734V86.332H75.708v2.07324h5.49707v2.71924H72.61719V79.11377Z"/><path d="M89.59863,84.98193l4.04981,6.14258h-3.502l-2.38671-3.69726L85.374,91.12451H81.9502L86,84.98193l-3.85449-5.86816h3.50195l2.1709,3.42334,2.23047-3.42334h3.40332Z"/><path d="M94.17969,79.11377h10.56347V81.813h-3.71679v9.31152H97.87695V81.813H94.17969Z"/><path d="M108.8916,87.15332v3.97119h-3.11035V79.11377h5.39941c2.582,0,4.36231,1.4668,4.36231,4.08838a3.60973,3.60973,0,0,1-2.38672,3.61865l2.81738,4.30371h-3.48242l-2.50391-3.97119Zm0-2.50391h1.957c1.11426,0,1.62305-.56689,1.62305-1.44726s-.50879-1.44776-1.62305-1.44776h-1.957Z"/><path d="M125.6582,79.11377V81.813h-5.49707v1.87793h5.02735V86.332h-5.02735v2.07324h5.49707v2.71924h-8.58789V79.11377Z"/><path d="M132.83887,91.12451,130.335,83.98438v7.14013h-2.93457V79.11377h3.835l2.64063,7.47266,2.62109-7.47266h3.81445V91.12451h-2.9541V83.98438l-2.48437,7.14013Z"/><path d="M150.8584,79.11377V81.813h-5.49707v1.87793h5.02734V86.332h-5.02734v2.07324h5.49707v2.71924h-8.58789V79.11377Z"/></svg>