<svg xmlns="http://www.w3.org/2000/svg" viewBox="0 0 300 250"><path d="M21.72656,223.53125V219.2793h2.2793v4.05175c0,.81446.41357,1.2754,1.02783,1.2754.61377,0,1.02735-.46094,1.02735-1.2754V219.2793h2.27929v4.25195c0,1.99609-1.27539,3.11816-3.30664,3.11816C23.01416,226.64941,21.72656,225.52734,21.72656,223.53125Z" fill="#b2b2b2"/><path d="M35.9668,226.53125H34.08887l-2.64551-3.626v3.626h-2.2085V219.2793h2.1377l2.38574,3.37793V219.2793h2.2085Z" fill="#b2b2b2"/><path d="M39.21191,226.53125h-2.2915V219.2793h2.2915Z" fill="#b2b2b2"/><path d="M39.64746,219.2793h6.56641v1.94922h-2.1377v5.30273h-2.291v-5.30273h-2.1377Z" fill="#b2b2b2"/><path d="M52.1167,219.2793v1.94922H48.916v.68457h2.92871v1.88964H48.916v.76758H52.1167v1.96094H46.66016V219.2793Z" fill="#b2b2b2"/><path d="M52.99951,219.2793H55.917a3.62748,3.62748,0,1,1,0,7.25195H52.99951Zm2.79932,5.291a1.67274,1.67274,0,0,0,0-3.34179h-.55518v3.34179Z" fill="#b2b2b2"/><path d="M68.44336,224.52344c0,1.28711-.874,2.00781-2.38574,2.00781H62.4082V219.2793h3.44873c1.51172,0,2.38575.67382,2.38575,1.97265a1.57827,1.57827,0,0,1-.98047,1.53516A1.78046,1.78046,0,0,1,68.44336,224.52344Zm-2.917-2.46875c.37793,0,.59033-.165.59033-.47168,0-.30762-.2124-.46094-.59033-.46094h-.957v.93262Zm-.957,2.62207h1.11035c.36621,0,.57861-.2002.57861-.48438,0-.30664-.2124-.49511-.57861-.49511H64.56934Z" fill="#b2b2b2"/><path d="M73.37793,219.2793h2.38574L73.165,224.14551v2.38574H70.8623v-2.38574l-2.563-4.86621h2.48l1.29931,2.58691Z" fill="#b2b2b2"/><path d="M80.44775,224.29883a.83278.83278,0,0,0,.89795.54394c.41309,0,.73194-.15429.73194-.47265,0-.248-.189-.31934-.47217-.37793l-1.48828-.30762c-1.11035-.22363-1.91309-.791-1.91309-2.05469,0-1.53515,1.29883-2.46777,2.97608-2.46777a2.82256,2.82256,0,0,1,3.11767,2.34961H82.06592a.83574.83574,0,0,0-.874-.55469c-.40136,0-.67334.1416-.67334.41309,0,.22461.17725.31933.40186.36621l1.51172.35449c1.29932.30664,1.94873,1.00391,1.94873,2.1377,0,1.55859-1.34668,2.42089-2.97607,2.42089-1.8545,0-3.09473-.874-3.34229-2.35058Z" fill="#b2b2b2"/><path d="M87.31934,224.54688v1.98437H85.06348V219.2793h3.40136a2.63543,2.63543,0,1,1,0,5.26758Zm.83837-3.36524h-.83837v1.46387h.83837c.59083,0,.82667-.28321.82667-.73242C88.98438,221.46484,88.74854,221.18164,88.15771,221.18164Z" fill="#b2b2b2"/><path d="M95.19434,226.64941a3.74458,3.74458,0,1,1,3.66113-3.74414A3.54782,3.54782,0,0,1,95.19434,226.64941Zm0-5.49218c-.80323,0-1.34668.66211-1.34668,1.748,0,1.08692.54345,1.74805,1.34668,1.74805.80273,0,1.35791-.66113,1.35791-1.74805C96.55225,221.81934,95.99707,221.15723,95.19434,221.15723Z" fill="#b2b2b2"/><path d="M101.75732,224.45312v2.07813H99.50146V219.2793h3.53125a2.51451,2.51451,0,0,1,2.72852,2.6455,2.3332,2.3332,0,0,1-1.24023,2.18555l1.5,2.4209h-2.51563l-1.2168-2.07813Zm0-1.79589h.96827c.59082,0,.81494-.29493.81494-.73243,0-.44824-.22412-.74316-.81494-.74316h-.96827Z" fill="#b2b2b2"/><path d="M106.12451,219.2793h6.56641v1.94922h-2.1377v5.30273h-2.291v-5.30273h-2.1377Z" fill="#b2b2b2"/></svg>