<svg xmlns="http://www.w3.org/2000/svg" viewBox="0 0 300 250"><path d="M25.206 116.917a1.631 1.631 0 111.644-1.63 1.589 1.589 0 01-1.644 1.63zm9.192-1.45v2.95h-.947v-7.364h2.758c1.487 0 2.423.755 2.423 2.206a2.12 2.12 0 01-2.423 2.207zm1.788-3.587h-1.788v2.746h1.788c.995 0 1.51-.54 1.51-1.367a1.32 1.32 0 00-1.51-1.38zm6.37 2.11a1.14 1.14 0 00-.599-.143 1.29 1.29 0 00-1.235.995v3.574h-.9v-5.325h.9v.696a1.487 1.487 0 011.319-.804 1.302 1.302 0 01.516.084zm3.181 4.534a2.792 2.792 0 112.448-2.77 2.496 2.496 0 01-2.448 2.77zm0-4.75c-.959 0-1.535.817-1.535 1.98s.576 1.979 1.535 1.979c.96 0 1.535-.816 1.535-1.98 0-1.162-.575-1.978-1.535-1.978zm3.925.085H48.8v-.768h.863v-1.403h.9v1.403h1.283v.768h-1.283v3.118c0 .516.252.744.707.744a1.325 1.325 0 00.696-.216v.84a1.894 1.894 0 01-.84.18 1.328 1.328 0 01-1.463-1.452zm7.762 2.962a2.033 2.033 0 01-2.148 1.703 2.486 2.486 0 01-2.446-2.758 2.516 2.516 0 012.423-2.783c1.463 0 2.242 1.068 2.242 2.615v.324H53.73c.012 1.139.648 1.835 1.547 1.835a1.228 1.228 0 001.296-.936zm-3.67-1.583h2.83a1.337 1.337 0 00-1.32-1.487 1.526 1.526 0 00-1.51 1.487zm5.388-3.178a.583.583 0 01-.576-.576.582.582 0 011.163 0 .586.586 0 01-.587.576zm.456 6.357h-.9v-5.326h.9zm1.608-5.326h.9v.672a1.989 1.989 0 011.57-.78 1.76 1.76 0 011.872 1.943v3.49h-.912v-3.346a1.108 1.108 0 00-1.175-1.259 1.444 1.444 0 00-1.356.996v3.61h-.899zm8.772.768h-.865v-.768h.865v-1.403h.899v1.403h1.283v.768h-1.283v3.118c0 .516.252.744.707.744a1.325 1.325 0 00.696-.216v.84a1.894 1.894 0 01-.84.18 1.328 1.328 0 01-1.462-1.452zm5.615 4.665a2.792 2.792 0 112.447-2.77 2.497 2.497 0 01-2.447 2.77zm0-4.75c-.96 0-1.535.817-1.535 1.98s.576 1.979 1.535 1.979c.96 0 1.535-.816 1.535-1.98 0-1.162-.575-1.978-1.535-1.978zm7.224 4.643h-.91v-7.796h.91v3.094a1.875 1.875 0 011.5-.732 2.476 2.476 0 012.398 2.77c0 1.512-.84 2.771-2.399 2.771a1.875 1.875 0 01-1.499-.731zm0-1.583a1.532 1.532 0 001.368.875c1.02 0 1.619-.828 1.619-1.955s-.6-1.955-1.62-1.955a1.533 1.533 0 00-1.367.875zm9.37 1.583h-.912v-.672a1.922 1.922 0 01-1.546.78 1.75 1.75 0 01-1.86-1.943v-3.49h.912v3.346c0 .743.36 1.259 1.163 1.259a1.414 1.414 0 001.331-.995v-3.61h.912zm2.043-6.357a.583.583 0 01-.576-.576.582.582 0 011.163 0 .586.586 0 01-.588.576zm.456 6.357h-.9v-5.326h.9zm2.507 0h-.899v-7.796h.9zm5.122-.624a1.873 1.873 0 01-1.499.731c-1.558 0-2.398-1.259-2.398-2.77a2.477 2.477 0 012.398-2.77 1.874 1.874 0 011.5.731v-3.094h.912v7.796h-.913zm0-3.119a1.533 1.533 0 00-1.367-.875c-1.02 0-1.619.827-1.619 1.955s.6 1.955 1.62 1.955a1.532 1.532 0 001.366-.875zm10.559-1.69c1.08 0 1.68.755 1.68 1.907v3.525h-.912v-3.382c0-.743-.324-1.235-1.007-1.235a1.242 1.242 0 00-1.176.948v3.67h-.9v-3.383c0-.743-.323-1.235-1.006-1.235a1.242 1.242 0 00-1.176.948v3.67h-.9v-5.326h.9v.624a1.665 1.665 0 011.44-.732 1.558 1.558 0 011.438.852 1.927 1.927 0 011.619-.852zm7.452 5.433h-.911v-.672a1.922 1.922 0 01-1.547.78 1.75 1.75 0 01-1.86-1.943v-3.49h.913v3.346c0 .743.36 1.259 1.163 1.259a1.414 1.414 0 001.331-.995v-3.61h.911zm2.091-1.464a1.188 1.188 0 001.26.816c.635 0 1.09-.252 1.09-.792 0-.372-.239-.6-.79-.743l-1.056-.276c-.756-.192-1.283-.576-1.283-1.403a1.696 1.696 0 011.907-1.572 1.876 1.876 0 012.062 1.512h-.899a1.092 1.092 0 00-1.175-.756c-.528 0-1.02.252-1.02.768 0 .36.24.527.744.671l1.031.252c.912.24 1.356.744 1.356 1.488 0 1.007-.84 1.606-1.979 1.606a2 2 0 01-2.184-1.57zm6.516-3.97a2.011 2.011 0 012.134 1.716h-.923a1.147 1.147 0 00-1.211-.924c-.913 0-1.512.816-1.512 1.979 0 1.163.6 1.979 1.512 1.979a1.147 1.147 0 001.21-.923h.924a2.011 2.011 0 01-2.134 1.714 2.795 2.795 0 010-5.54zm4.212 5.433h-.9v-7.795h.9zm5.818-1.595a2.033 2.033 0 01-2.148 1.703 2.486 2.486 0 01-2.446-2.758 2.516 2.516 0 012.423-2.783c1.463 0 2.242 1.068 2.242 2.615v.324h-3.765c.011 1.139.647 1.835 1.546 1.835a1.228 1.228 0 001.296-.936zm-3.67-1.583h2.83a1.337 1.337 0 00-1.32-1.487 1.526 1.526 0 00-1.51 1.487zm12.992-2.255c1.08 0 1.68.756 1.68 1.908v3.526h-.912v-3.383c0-.743-.324-1.235-1.007-1.235a1.242 1.242 0 00-1.176.948v3.67h-.9v-3.383c0-.743-.323-1.235-1.007-1.235a1.242 1.242 0 00-1.175.948v3.67h-.9v-5.326h.9v.624a1.665 1.665 0 011.44-.732 1.558 1.558 0 011.438.852 1.927 1.927 0 011.62-.852zm6.206 5.434v-.396a2.133 2.133 0 01-1.403.491 1.79 1.79 0 01-1.979-1.702 1.824 1.824 0 012.04-1.668 2.277 2.277 0 011.342.432v-.672a1.074 1.074 0 00-1.175-1.139 1.032 1.032 0 00-1.091.732h-.888a1.93 1.93 0 011.991-1.512 1.806 1.806 0 012.026 1.884v3.55zm0-1.872a1.332 1.332 0 00-1.247-.66c-.647 0-1.271.289-1.271.925 0 .647.624.947 1.271.947a1.331 1.331 0 001.247-.66zm2.893.408a1.188 1.188 0 001.26.816c.635 0 1.09-.252 1.09-.792 0-.372-.239-.6-.79-.743l-1.056-.276c-.756-.192-1.284-.576-1.284-1.403a1.696 1.696 0 011.908-1.572 1.876 1.876 0 012.062 1.512h-.9a1.092 1.092 0 00-1.174-.756c-.528 0-1.02.252-1.02.768 0 .36.24.527.744.671l1.03.252c.913.24 1.356.744 1.356 1.488 0 1.007-.84 1.606-1.978 1.606a2 2 0 01-2.184-1.57zm4.968 0a1.188 1.188 0 001.26.816c.635 0 1.091-.252 1.091-.792 0-.372-.24-.6-.792-.743l-1.056-.276c-.755-.192-1.283-.576-1.283-1.403a1.697 1.697 0 011.907-1.572 1.876 1.876 0 012.063 1.512h-.9a1.092 1.092 0 00-1.174-.756c-.529 0-1.02.252-1.02.768 0 .36.24.527.743.671l1.032.252c.912.24 1.355.744 1.355 1.488 0 1.007-.84 1.606-1.978 1.606a2 2 0 01-2.184-1.57zM25.206 130.917a1.631 1.631 0 111.644-1.63 1.589 1.589 0 01-1.644 1.63zm14.302-5.864v7.364h-.948v-3.359h-4.162v3.359h-.947v-7.364h.947v3.154h4.162v-3.154zm2.126 1.007a.583.583 0 01-.575-.576.582.582 0 011.163 0 .586.586 0 01-.588.576zm.456 6.357h-.9v-5.326h.9zm5.098-.756a1.88 1.88 0 01-1.487.72 2.719 2.719 0 010-5.398 1.872 1.872 0 011.488.708v-.6h.91v4.906a2.273 2.273 0 01-2.374 2.578 2.068 2.068 0 01-2.279-1.763h.888a1.27 1.27 0 001.39.996c.96 0 1.465-.6 1.465-1.751zm0-3.046a1.545 1.545 0 00-1.355-.828c-1.008 0-1.595.792-1.595 1.895 0 1.091.587 1.883 1.595 1.883a1.545 1.545 0 001.356-.828zm2.522-3.994h.9v3.142a1.989 1.989 0 011.57-.78 1.76 1.76 0 011.872 1.943v3.49h-.912v-3.346a1.108 1.108 0 00-1.175-1.259 1.444 1.444 0 00-1.356.996v3.61h-.899zm10.56 2.362a2.01 2.01 0 012.134 1.716h-.923a1.147 1.147 0 00-1.211-.924c-.913 0-1.512.816-1.512 1.979 0 1.163.6 1.979 1.512 1.979a1.147 1.147 0 001.21-.923h.924a2.01 2.01 0 01-2.134 1.714 2.795 2.795 0 010-5.54zm6.31 5.433v-.395a2.133 2.133 0 01-1.403.491 1.79 1.79 0 01-1.979-1.702 1.824 1.824 0 012.04-1.668 2.277 2.277 0 011.342.432v-.672a1.074 1.074 0 00-1.175-1.139 1.032 1.032 0 00-1.091.732h-.888a1.93 1.93 0 011.991-1.512 1.806 1.806 0 012.026 1.884v3.55zm0-1.87a1.333 1.333 0 00-1.247-.66c-.647 0-1.271.288-1.271.924 0 .647.624.947 1.271.947a1.332 1.332 0 001.247-.66zm3.302 1.87h-.9v-7.795h.9zm3.67.108a2.792 2.792 0 112.448-2.77 2.496 2.496 0 01-2.447 2.77zm0-4.75c-.958 0-1.534.817-1.534 1.98s.576 1.979 1.535 1.979c.96 0 1.535-.816 1.535-1.98 0-1.162-.575-1.978-1.535-1.978zm6.409.217a1.14 1.14 0 00-.6-.144 1.29 1.29 0 00-1.235.995v3.574h-.9v-5.325h.9v.696a1.487 1.487 0 011.32-.804 1.302 1.302 0 01.515.084zm1.56-1.93a.583.583 0 01-.575-.577.582.582 0 011.163 0 .586.586 0 01-.588.576zm.457 6.356h-.9v-5.326h.9zm5.818-1.596a2.033 2.033 0 01-2.148 1.703 2.486 2.486 0 01-2.446-2.758 2.516 2.516 0 012.423-2.783c1.463 0 2.242 1.068 2.242 2.615v.324h-3.765c.011 1.139.647 1.835 1.546 1.835a1.228 1.228 0 001.296-.936zm-3.671-1.583h2.831a1.337 1.337 0 00-1.32-1.487 1.528 1.528 0 00-1.511 1.487zm10.259-3.79a1.04 1.04 0 00-.564-.144.848.848 0 00-.875.972v.815h1.2v.768h-1.2v4.558h-.887v-4.558h-.9v-.768h.9v-.887a1.565 1.565 0 011.63-1.691 1.72 1.72 0 01.696.12zm2.868 7.076a2.792 2.792 0 112.447-2.77 2.497 2.497 0 01-2.447 2.77zm0-4.749c-.959 0-1.535.816-1.535 1.979 0 1.164.576 1.979 1.535 1.979.96 0 1.535-.815 1.535-1.979 0-1.163-.575-1.98-1.535-1.98zm6.408.216a1.14 1.14 0 00-.6-.144 1.29 1.29 0 00-1.235.995v3.575h-.9v-5.326h.9v.696a1.487 1.487 0 011.32-.804 1.302 1.302 0 01.515.084zm6.514-1.008c1.08 0 1.68.756 1.68 1.908v3.526h-.913v-3.383c0-.743-.323-1.235-1.006-1.235a1.242 1.242 0 00-1.176.948v3.67h-.9v-3.383c0-.743-.323-1.235-1.007-1.235a1.242 1.242 0 00-1.175.948v3.67h-.9v-5.326h.9v.624a1.665 1.665 0 011.44-.732 1.558 1.558 0 011.438.852 1.927 1.927 0 011.619-.852zm7.453 5.434h-.911v-.672a1.922 1.922 0 01-1.547.78 1.75 1.75 0 01-1.86-1.943v-3.49h.913v3.346c0 .743.36 1.259 1.163 1.259a1.414 1.414 0 001.33-.995v-3.61h.912zm2.498 0h-.9v-7.796h.9zm4.606 0v-.396a2.133 2.133 0 01-1.403.491 1.79 1.79 0 01-1.978-1.702 1.824 1.824 0 012.039-1.668 2.277 2.277 0 011.342.432v-.672a1.074 1.074 0 00-1.174-1.139 1.032 1.032 0 00-1.092.732h-.888a1.93 1.93 0 011.991-1.512 1.806 1.806 0 012.027 1.884v3.55zm0-1.872a1.332 1.332 0 00-1.247-.66c-.647 0-1.271.289-1.271.925 0 .647.624.947 1.271.947a1.331 1.331 0 001.247-.66zm-99.525 14.373a1.631 1.631 0 111.644-1.632 1.589 1.589 0 01-1.644 1.631zm10.464 1.499l-2.843-7.364h.995l2.303 6.116 2.315-6.116h.96l-2.843 7.364zm5.232-6.357a.583.583 0 01-.575-.576.582.582 0 011.163 0 .586.586 0 01-.588.576zm.456 6.357h-.899v-5.326h.9zm1.86-4.558h-.862v-.768h.863v-1.403h.9v1.403H45.4v.768h-1.283v3.118c0 .516.252.744.707.744a1.325 1.325 0 00.696-.216v.84a1.894 1.894 0 01-.84.18 1.328 1.328 0 01-1.462-1.452zm6.55 4.558v-.396a2.133 2.133 0 01-1.403.491 1.79 1.79 0 01-1.978-1.702 1.824 1.824 0 012.039-1.668 2.277 2.277 0 011.343.432v-.672a1.074 1.074 0 00-1.175-1.139 1.032 1.032 0 00-1.092.732h-.888a1.93 1.93 0 011.992-1.512 1.806 1.806 0 012.026 1.884v3.55zm0-1.872a1.332 1.332 0 00-1.246-.66c-.648 0-1.272.289-1.272.925 0 .647.624.947 1.272.947a1.331 1.331 0 001.247-.66zm7.8-3.562c1.08 0 1.68.756 1.68 1.908v3.526h-.913v-3.383c0-.743-.323-1.235-1.007-1.235a1.242 1.242 0 00-1.176.948v3.67h-.899v-3.383c0-.743-.323-1.235-1.007-1.235a1.242 1.242 0 00-1.176.948v3.67h-.9v-5.326h.9v.624a1.665 1.665 0 011.44-.732 1.558 1.558 0 011.438.852 1.927 1.927 0 011.62-.852zm3.65-.923a.583.583 0 01-.575-.576.582.582 0 011.163 0 .586.586 0 01-.588.576zm.456 6.357h-.9v-5.326h.9zm1.608-5.326h.9v.672a1.989 1.989 0 011.571-.78 1.76 1.76 0 011.871 1.943v3.49h-.912v-3.346a1.108 1.108 0 00-1.175-1.259 1.444 1.444 0 00-1.355.996v3.61h-.9zm12.022-.36a1.03 1.03 0 00-1.068-1.055 1.067 1.067 0 00-1.14 1.104 2.144 2.144 0 00.793 1.379l2.062 2.195a4.515 4.515 0 00.348-1.631h.84a4.561 4.561 0 01-.636 2.23l1.379 1.464h-1.187l-.732-.768a2.91 2.91 0 01-2.11.875 2.235 2.235 0 01-2.387-2.254 2.266 2.266 0 011.343-2.015 2.183 2.183 0 01-.587-1.451 1.85 1.85 0 012.014-1.86 1.81 1.81 0 011.967 1.787zm.156 4.378l-2.147-2.29a1.548 1.548 0 00-.984 1.45 1.449 1.449 0 001.524 1.5 2.132 2.132 0 001.607-.66zm11.41-4.126c1.08 0 1.68.756 1.68 1.908v3.526h-.912v-3.383c0-.743-.324-1.235-1.007-1.235a1.242 1.242 0 00-1.176.948v3.67h-.9v-3.383c0-.743-.323-1.235-1.006-1.235a1.242 1.242 0 00-1.176.948v3.67h-.9v-5.326h.9v.624a1.665 1.665 0 011.44-.732 1.558 1.558 0 011.438.852 1.927 1.927 0 011.62-.852zm3.652-.923a.583.583 0 01-.576-.576.582.582 0 011.163 0 .586.586 0 01-.588.576zm.456 6.357h-.9v-5.326h.9zm1.608-5.326h.9v.672a1.989 1.989 0 011.57-.78 1.76 1.76 0 011.872 1.943v3.49h-.912v-3.346a1.108 1.108 0 00-1.175-1.259 1.444 1.444 0 00-1.356.996v3.61h-.899zm10.078 3.73a2.033 2.033 0 01-2.147 1.703 2.486 2.486 0 01-2.447-2.758 2.516 2.516 0 012.423-2.783c1.463 0 2.242 1.068 2.242 2.615v.324H98.97c.011 1.14.647 1.835 1.547 1.835a1.228 1.228 0 001.296-.936zm-3.67-1.583h2.83a1.337 1.337 0 00-1.32-1.487 1.526 1.526 0 00-1.51 1.487zm7.678-1.247a1.14 1.14 0 00-.6-.144 1.29 1.29 0 00-1.235.995v3.575h-.9v-5.326h.9v.696a1.487 1.487 0 011.32-.804 1.302 1.302 0 01.515.084zm4.116 4.426v-.396a2.133 2.133 0 01-1.403.491 1.79 1.79 0 01-1.979-1.702 1.824 1.824 0 012.04-1.668 2.277 2.277 0 011.342.432v-.672a1.074 1.074 0 00-1.175-1.139 1.032 1.032 0 00-1.091.732h-.888a1.93 1.93 0 011.991-1.512 1.806 1.806 0 012.026 1.884v3.55zm0-1.872a1.332 1.332 0 00-1.247-.66c-.647 0-1.271.289-1.271.925 0 .647.624.947 1.271.947a1.331 1.331 0 001.247-.66zm3.3 1.872h-.899v-7.796h.9zm6.924-6.969a1.04 1.04 0 00-.564-.144.848.848 0 00-.875.972v.815h1.2v.768h-1.2v4.558h-.887v-4.558h-.9v-.768h.9v-.887a1.565 1.565 0 011.63-1.691 1.716 1.716 0 01.696.12zm2.868 7.076a2.792 2.792 0 112.447-2.77 2.497 2.497 0 01-2.447 2.77zm0-4.75c-.96 0-1.535.817-1.535 1.98 0 1.164.576 1.979 1.535 1.979.96 0 1.535-.815 1.535-1.979 0-1.163-.575-1.98-1.535-1.98zm6.408.217a1.14 1.14 0 00-.6-.144 1.29 1.29 0 00-1.235.995v3.575h-.9v-5.326h.9v.696a1.487 1.487 0 011.32-.804 1.302 1.302 0 01.515.084zm1.37-.132h-.865v-.768h.864v-1.403h.9v1.403h1.283v.768h-1.283v3.118c0 .516.252.744.707.744a1.325 1.325 0 00.696-.216v.84a1.894 1.894 0 01-.84.18 1.328 1.328 0 01-1.463-1.452zm3.994-1.799a.583.583 0 01-.575-.576.582.582 0 011.163 0 .586.586 0 01-.588.576zm.456 6.357h-.899v-5.326h.9zm4.272-6.969a1.04 1.04 0 00-.564-.144.848.848 0 00-.875.972v.815h1.2v.768h-1.2v4.558h-.887v-4.558h-.9v-.768h.9v-.887a1.565 1.565 0 011.63-1.691 1.72 1.72 0 01.696.12zm1.249.612a.583.583 0 01-.575-.576.582.582 0 011.163 0 .586.586 0 01-.588.576zm.456 6.357h-.9v-5.326h.9zm5.818-1.596a2.033 2.033 0 01-2.147 1.703 2.486 2.486 0 01-2.446-2.758 2.516 2.516 0 012.422-2.783c1.463 0 2.243 1.068 2.243 2.615v.324h-3.766c.012 1.14.647 1.835 1.547 1.835a1.228 1.228 0 001.296-.936zm-3.67-1.583h2.83a1.337 1.337 0 00-1.319-1.487 1.528 1.528 0 00-1.512 1.487zm8.457 2.555a1.873 1.873 0 01-1.499.731c-1.558 0-2.398-1.259-2.398-2.77a2.477 2.477 0 012.398-2.77 1.874 1.874 0 011.5.731v-3.094h.912v7.796h-.913zm0-3.119a1.533 1.533 0 00-1.367-.875c-1.02 0-1.619.828-1.619 1.955s.6 1.955 1.62 1.955a1.532 1.532 0 001.366-.875z"/></svg>